<svg width="22" height="23" viewBox="0 0 22 23" fill="none" xmlns="http://www.w3.org/2000/svg">
<path d="M12.8333 3.25V6.91667C12.8333 7.42293 13.2437 7.83333 13.7499 7.83333H17.4166" stroke="#4B465C" stroke-width="1.75" stroke-linecap="round" stroke-linejoin="round"/>
<path d="M12.8333 3.25V6.91667C12.8333 7.42293 13.2437 7.83333 13.7499 7.83333H17.4166" stroke="white" stroke-opacity="0.2" stroke-width="1.75" stroke-linecap="round" stroke-linejoin="round"/>
<path fill-rule="evenodd" clip-rule="evenodd" d="M15.5833 19.75H6.41659C5.40406 19.75 4.58325 18.9292 4.58325 17.9167V5.08333C4.58325 4.07081 5.40406 3.25 6.41659 3.25H12.8333L17.4166 7.83333V17.9167C17.4166 18.9292 16.5958 19.75 15.5833 19.75Z" stroke="#4B465C" stroke-width="1.75" stroke-linecap="round" stroke-linejoin="round"/>
<path fill-rule="evenodd" clip-rule="evenodd" d="M15.5833 19.75H6.41659C5.40406 19.75 4.58325 18.9292 4.58325 17.9167V5.08333C4.58325 4.07081 5.40406 3.25 6.41659 3.25H12.8333L17.4166 7.83333V17.9167C17.4166 18.9292 16.5958 19.75 15.5833 19.75Z" stroke="white" stroke-opacity="0.2" stroke-width="1.75" stroke-linecap="round" stroke-linejoin="round"/>
<path d="M8.25008 16.0833V11.5" stroke="#4B465C" stroke-width="1.75" stroke-linecap="round" stroke-linejoin="round"/>
<path d="M8.25008 16.0833V11.5" stroke="white" stroke-opacity="0.2" stroke-width="1.75" stroke-linecap="round" stroke-linejoin="round"/>
<path d="M11.0001 16.0837V15.167" stroke="#4B465C" stroke-width="1.75" stroke-linecap="round" stroke-linejoin="round"/>
<path d="M11.0001 16.0837V15.167" stroke="white" stroke-opacity="0.2" stroke-width="1.75" stroke-linecap="round" stroke-linejoin="round"/>
<path d="M13.7501 16.083V13.333" stroke="#4B465C" stroke-width="1.75" stroke-linecap="round" stroke-linejoin="round"/>
<path d="M13.7501 16.083V13.333" stroke="white" stroke-opacity="0.2" stroke-width="1.75" stroke-linecap="round" stroke-linejoin="round"/>
</svg>
