<svg width="185" height="38" viewBox="0 0 185 38" fill="none" xmlns="http://www.w3.org/2000/svg">
<path d="M0.997147 4.73038V5.42691C0.997147 5.96948 0.997147 6.48271 0.997147 6.95929V12.2163H0V2.9707H1.0778L5.77758 10.4273V9.74544C5.77758 9.20287 5.77758 8.7043 5.77758 8.27905V3.00737H6.81139V12.2163H5.7116L0.997147 4.73038Z" fill="#005BA5"/>
<path d="M15.133 8.72631C15.133 11.1605 14.0258 12.3923 11.8189 12.3923C9.61199 12.3923 8.51953 11.1825 8.51953 8.72631V2.9707H9.53134V8.74096C9.53134 10.4933 10.2645 11.3805 11.8042 11.3805C13.344 11.3805 14.0992 10.4933 14.0992 8.74096V2.9707H15.1036V4.15849C15.2646 4.09574 15.4009 3.98252 15.4921 3.8358C15.5833 3.68908 15.6245 3.51675 15.6095 3.34464V2.98537H16.4234V3.36664C16.4715 3.76839 16.3602 4.173 16.1135 4.49372C15.8668 4.81443 15.5043 5.02573 15.1036 5.08231L15.133 8.72631Z" fill="#005BA5"/>
<path d="M24.9285 7.58857C25.0018 8.87326 24.5763 10.1367 23.7407 11.1152C23.3437 11.5127 22.8723 11.8281 22.3533 12.0432C21.8344 12.2584 21.2781 12.3691 20.7163 12.3691C20.1545 12.3691 19.5982 12.2584 19.0793 12.0432C18.5603 11.8281 18.0889 11.5127 17.6919 11.1152C16.9252 10.098 16.5105 8.85874 16.5105 7.5849C16.5105 6.31106 16.9252 5.07185 17.6919 4.05457C18.4962 3.2509 19.5866 2.79945 20.7236 2.79945C21.8606 2.79945 22.9511 3.2509 23.7554 4.05457C23.8724 3.97362 23.9659 3.86315 24.0264 3.73438C24.087 3.60561 24.1124 3.46312 24.1 3.32138V2.96211H24.9285V3.34337C24.9552 3.62183 24.9107 3.9025 24.7991 4.15902C24.6876 4.41554 24.5126 4.63947 24.2906 4.80976C24.7381 5.66598 24.9578 6.62292 24.9285 7.58857ZM20.7126 11.3792C21.1392 11.399 21.5647 11.323 21.958 11.1567C22.3513 10.9905 22.7024 10.7384 22.9856 10.4187C23.563 9.58652 23.8724 8.59779 23.8724 7.5849C23.8724 6.57201 23.563 5.5833 22.9856 4.75111C22.6909 4.44712 22.3383 4.20543 21.9485 4.04037C21.5586 3.87532 21.1396 3.79026 20.7163 3.79026C20.293 3.79026 19.874 3.87532 19.4842 4.04037C19.0944 4.20543 18.7417 4.44712 18.4471 4.75111C17.8697 5.5833 17.5603 6.57201 17.5603 7.5849C17.5603 8.59779 17.8697 9.58652 18.4471 10.4187C18.7322 10.7418 19.0868 10.996 19.4843 11.1624C19.8818 11.3287 20.3117 11.4029 20.742 11.3792H20.7126ZM20.2947 2.09694L21.5338 0L22.4063 0.249284L21.2625 2.09694H20.2947Z" fill="#005BA5"/>
<path d="M33.8512 9.64839C33.6249 10.4664 33.1254 11.1824 32.4358 11.6772C31.7462 12.1721 30.9081 12.416 30.0606 12.3685C29.4995 12.3919 28.94 12.2918 28.4218 12.0751C27.9036 11.8585 27.4394 11.5306 27.0619 11.1148C26.2387 10.1214 25.8199 8.8544 25.8887 7.56611C25.8159 6.27953 26.2353 5.01341 27.0619 4.02478C27.4442 3.617 27.9101 3.29652 28.4276 3.08521C28.9451 2.8739 29.5021 2.77674 30.0606 2.80034C30.9279 2.77322 31.7803 3.03073 32.4875 3.53354C33.0792 3.97767 33.5134 4.59939 33.7266 5.30787L32.7295 5.58649C32.5546 5.01966 32.1887 4.53093 31.6941 4.20343C31.1995 3.87593 30.6068 3.7299 30.0166 3.79016C29.5908 3.77014 29.1661 3.84756 28.7747 4.01655C28.3834 4.18554 28.0358 4.44164 27.7584 4.76531C27.1989 5.59903 26.9001 6.58038 26.9001 7.58444C26.9001 8.5885 27.1989 9.56986 27.7584 10.4036C28.0268 10.7226 28.3644 10.9763 28.7455 11.1453C29.1267 11.3143 29.5413 11.3941 29.958 11.3787C30.5985 11.4237 31.235 11.2472 31.7609 10.8788C32.2868 10.5104 32.6702 9.97245 32.8468 9.35511L33.8512 9.64839Z" fill="#005BA5"/>
<path d="M40.1719 9.59721C40.2599 10.8143 41.0298 11.4229 42.4668 11.4229C43.7499 11.4229 44.3805 10.8877 44.3805 9.84651C44.3949 9.5677 44.3294 9.29057 44.1917 9.04769C44.054 8.80481 43.8499 8.60626 43.6033 8.47542C43.0889 8.24714 42.5598 8.05365 42.0196 7.89621C41.3962 7.72883 40.806 7.45606 40.2746 7.08969C39.9909 6.86823 39.7639 6.58259 39.6123 6.25627C39.4606 5.92996 39.3885 5.5723 39.4021 5.21271C39.3811 4.87957 39.4362 4.54601 39.5632 4.23732C39.6902 3.92864 39.8859 3.65291 40.1353 3.43104C40.7376 2.9794 41.4806 2.75598 42.2322 2.80049C43.9919 2.80049 45.0183 3.53369 45.319 5.05873L44.3291 5.32268C44.2529 4.84182 43.9936 4.40911 43.6054 4.11524C43.2172 3.82138 42.7304 3.68917 42.2469 3.74632C41.0444 3.74632 40.4359 4.2229 40.4359 5.21271C40.4359 5.45548 40.4962 5.69443 40.6114 5.90814C40.7266 6.12184 40.893 6.30362 41.0957 6.43715C41.5958 6.70794 42.1245 6.92189 42.6721 7.07502C43.339 7.23911 43.9735 7.51423 44.5491 7.88887C44.8427 8.11679 45.0782 8.41101 45.2362 8.74746C45.3942 9.0839 45.4703 9.45301 45.4583 9.82452C45.4583 11.5255 44.4684 12.3687 42.4742 12.3687C40.4799 12.3687 39.4021 11.5402 39.2041 9.86117L40.1719 9.59721Z" fill="#005BA5"/>
<path d="M48.0758 9.78209L47.2179 12.2163H46.1328L49.4982 2.9707H50.73L54.11 12.2163H53.0102L52.1377 9.78209H48.0758ZM50.8986 6.29942C50.356 4.83303 50.1067 4.09983 50.1214 4.09983C50.1214 4.09983 49.8721 4.83303 49.3442 6.29942L48.3911 8.83628H51.7784L50.8986 6.29942ZM49.4322 13.7854C49.4322 13.3454 49.6595 13.1255 50.1214 13.1255C50.5833 13.1255 50.8033 13.3454 50.8033 13.7854C50.8172 13.8778 50.809 13.9722 50.7796 14.0609C50.7501 14.1496 50.7001 14.23 50.6336 14.2958C50.5672 14.3615 50.4862 14.4106 50.3972 14.4392C50.3082 14.4677 50.2137 14.4748 50.1214 14.4599C50.027 14.4708 49.9313 14.46 49.8416 14.4283C49.752 14.3966 49.6708 14.3448 49.6043 14.2768C49.5378 14.2089 49.4877 14.1267 49.4579 14.0364C49.428 13.9461 49.4193 13.8502 49.4322 13.756V13.7854Z" fill="#005BA5"/>
<path d="M62.82 9.64839C62.5932 10.469 62.0915 11.1869 61.3988 11.682C60.7062 12.1771 59.8646 12.4195 59.0147 12.3685C58.4536 12.3919 57.8941 12.2918 57.3759 12.0751C56.8577 11.8585 56.3935 11.5306 56.016 11.1148C55.1928 10.1214 54.774 8.8544 54.8428 7.56611C54.77 6.27953 55.1894 5.01341 56.016 4.02478C56.3983 3.617 56.8642 3.29652 57.3817 3.08521C57.8992 2.8739 58.4562 2.77674 59.0147 2.80034C59.882 2.77322 60.7344 3.03073 61.4416 3.53354C62.043 3.97127 62.4877 4.59076 62.71 5.30054L61.7056 5.57916C61.5333 5.01216 61.1692 4.52277 60.6755 4.195C60.1818 3.86722 59.5895 3.72149 59.0001 3.78282C58.5743 3.7628 58.1495 3.84024 57.7582 4.00923C57.3668 4.17822 57.0192 4.4343 56.7418 4.75797C56.1823 5.59169 55.8835 6.57306 55.8835 7.57712C55.8835 8.58119 56.1823 9.56254 56.7418 10.3963C57.0102 10.7153 57.3478 10.969 57.7289 11.138C58.1101 11.3069 58.5248 11.3868 58.9414 11.3714C59.5694 11.4047 60.1903 11.2262 60.7048 10.8646C61.2193 10.503 61.5975 9.97923 61.7789 9.37711L62.82 9.64839Z" fill="#005BA5"/>
<path d="M69.7196 7.89045H65.3204V12.209H64.2939V2.9707H65.2544V6.87864H69.6536V2.9707H70.6801V12.2163H69.6536L69.7196 7.89045Z" fill="#005BA5"/>
<path d="M0 22.4785H3.75396V33.3371H9.23827V36.8492H0V22.4785Z" fill="#329BF0"/>
<path d="M14.356 34.7742L13.7988 36.8492H9.89819L14.356 22.4785H18.9898L23.4623 36.8492H19.5031L18.9238 34.7742H14.356ZM17.1862 28.4687C16.8196 27.0977 16.6509 26.4378 16.6729 26.4598H16.5923C16.5923 26.4598 16.4456 27.0977 16.079 28.4467L15.2799 31.3502H17.9853L17.1862 28.4687Z" fill="#329BF0"/>
<path d="M34.3504 33.8504C34.3504 32.4353 34.3504 31.1376 34.3504 29.9865V28.674H34.2918C34.2918 28.674 33.9398 29.5172 33.2066 31.2182L32.2608 33.4178H30.0612L28.0303 28.652H28.0083V29.9644C28.0083 31.1156 28.0083 32.4133 28.0083 33.8284V36.8272H24.3423V22.4785H28.5948L31.3223 28.1828H31.4103L34.0791 22.4785H38.1264V36.8492H34.3504V33.8504Z" fill="#329BF0"/>
<path d="M47.3207 32.2884C47.4301 32.7427 47.7009 33.1419 48.0825 33.4116C48.4642 33.6814 48.9308 33.8033 49.3957 33.7548C50.4001 33.7548 50.8621 33.4028 50.8621 32.7283C50.8621 32.2957 50.5688 31.9951 50.0189 31.7385C49.8356 31.6798 49.5423 31.5772 49.117 31.4525C48.6918 31.3279 48.2299 31.2032 47.9879 31.1226C47.022 30.8436 46.1203 30.3778 45.3338 29.7515C44.8906 29.3381 44.5419 28.8339 44.3116 28.2733C44.0813 27.7127 43.9748 27.109 43.9993 26.5035C43.9702 25.8941 44.0829 25.2862 44.3284 24.7277C44.574 24.1692 44.9457 23.6753 45.4144 23.2847C46.513 22.4844 47.8555 22.0905 49.2124 22.1703C52.2698 22.1703 54.0954 23.446 54.7113 26.0122L51.1187 26.98C51.0413 26.5375 50.7997 26.1406 50.4421 25.8687C50.0845 25.5968 49.6374 25.47 49.1904 25.5136C48.3105 25.5136 47.8779 25.8216 47.8779 26.4595C47.8855 26.6811 47.9595 26.8953 48.0902 27.0744C48.2209 27.2535 48.4024 27.3892 48.6111 27.4639C49.3103 27.7252 50.0225 27.9503 50.7447 28.1385C51.7291 28.3794 52.648 28.8351 53.4356 29.4729C53.859 29.8877 54.1893 30.3881 54.4042 30.9406C54.6191 31.4931 54.7138 32.085 54.682 32.677C54.682 35.6097 52.9321 37.0883 49.4323 37.1128C46.2063 37.1128 44.2951 35.8199 43.6987 33.2342L47.3207 32.2884Z" fill="#329BF0"/>
<path d="M69.0671 29.6634C69.0671 32.0243 68.4512 33.85 67.1974 35.1844C66.5613 35.8401 65.793 36.3531 64.9436 36.6894C64.0941 37.0256 63.1829 37.1774 62.2703 37.1347C61.3625 37.1818 60.4551 37.0341 59.6091 36.7015C58.763 36.3689 57.998 35.8591 57.3653 35.2064C56.0367 33.6757 55.358 31.687 55.4736 29.6634C55.4736 27.3025 56.0895 25.4549 57.3433 24.1205C58.6777 22.8758 60.4345 22.1836 62.2593 22.1836C64.0841 22.1836 65.841 22.8758 67.1754 24.1205C67.2606 24.1999 67.3368 24.2884 67.4027 24.3844C67.5986 24.2734 67.7573 24.107 67.8591 23.9062C67.9608 23.7053 68.001 23.4789 67.9746 23.2553V22.5221H69.9909V23.2846C70.03 24.751 69.5412 25.7433 68.5245 26.2614C68.9116 27.3527 69.0955 28.5058 69.0671 29.6634ZM65.2838 29.6634C65.2838 27.0386 64.2793 25.7262 62.2703 25.7262C60.276 25.7262 59.2716 27.0166 59.2716 29.6268C59.2716 32.2369 60.276 33.564 62.2703 33.564C64.2646 33.564 65.2544 32.2883 65.2544 29.6781L65.2838 29.6634Z" fill="#329BF0"/>
<path d="M74.7053 29.3706H74.6467V30.4997V36.8492H70.9807V22.4785H74.786L79.5078 29.9718H79.5664V22.4785H83.2324V36.8492H79.4565L74.7053 29.3706Z" fill="#329BF0"/>
<path d="M92.4706 32.2884C92.5771 32.7429 92.846 33.1429 93.2268 33.413C93.6076 33.6831 94.0741 33.8046 94.5382 33.7548C95.5427 33.7548 96.0413 33.4028 96.0413 32.7283C96.0413 32.2957 95.748 31.9951 95.1981 31.7385C95.0148 31.6798 94.7289 31.5772 94.2963 31.4525C93.8637 31.3279 93.4091 31.2032 93.1672 31.1226C92.2027 30.8456 91.303 30.3795 90.5203 29.7515C90.0747 29.3397 89.7238 28.8359 89.4921 28.2751C89.2605 27.7142 89.1535 27.1098 89.1786 26.5035C89.145 25.897 89.252 25.2911 89.4911 24.7328C89.7302 24.1745 90.0949 23.6789 90.557 23.2847C91.6556 22.4844 92.9981 22.0905 94.3549 22.1703C97.4124 22.1703 99.238 23.446 99.8539 26.0122L96.2612 26.98C96.1839 26.5375 95.9422 26.1406 95.5847 25.8687C95.2271 25.5968 94.78 25.47 94.3329 25.5136C93.4531 25.5136 93.0205 25.8216 93.0205 26.4595C93.0291 26.6808 93.1034 26.8946 93.234 27.0735C93.3646 27.2524 93.5455 27.3883 93.7537 27.4639C94.4529 27.7252 95.165 27.9503 95.8873 28.1385C96.8717 28.3794 97.7906 28.8351 98.5781 29.4729C99.0016 29.8877 99.3318 30.3881 99.5468 30.9406C99.7617 31.4931 99.8564 32.085 99.8246 32.677C99.8246 35.6097 98.0747 37.0883 94.5749 37.1128C91.3488 37.1128 89.4376 35.8199 88.8413 33.2342L92.4706 32.2884Z" fill="#005BA5"/>
<path d="M104.781 34.7742L104.231 36.8492H100.331L104.781 22.4785H109.422L113.88 36.8492H109.913L109.342 34.7742H104.781ZM107.619 28.4687C107.245 27.0977 107.083 26.4378 107.105 26.4598H107.047C107.047 26.4598 106.9 27.0977 106.533 28.4467L105.727 31.3429H108.44L107.619 28.4687Z" fill="#005BA5"/>
<path d="M115.684 24.1205C117.021 22.8769 118.778 22.1855 120.604 22.1855C122.429 22.1855 124.187 22.8769 125.524 24.1205C126.847 25.6538 127.522 27.6413 127.408 29.6634C127.408 32.0243 126.792 33.85 125.538 35.1844C124.205 36.4307 122.447 37.124 120.622 37.124C118.797 37.124 117.04 36.4307 115.706 35.1844C114.378 33.6537 113.699 31.665 113.814 29.6414C113.814 27.3025 114.43 25.4842 115.684 24.1205ZM120.611 33.5494C122.627 33.5494 123.632 32.2589 123.632 29.6488C123.632 27.0386 122.627 25.7115 120.611 25.7115C118.595 25.7115 117.612 27.0019 117.612 29.6121C117.612 32.2223 118.624 33.5494 120.611 33.5494Z" fill="#005BA5"/>
<path d="M136.485 36.8492L132.357 22.4785H136.587L138.23 29.2679C138.882 31.9807 139.168 33.2345 139.109 33.0072H139.19C139.19 32.8606 139.476 31.6508 140.033 29.3412L141.676 22.4859H145.679L141.573 36.8565L136.485 36.8492Z" fill="#005BA5"/>
<path d="M148.531 34.7745L147.981 36.8494H144.08L148.531 22.4788H153.172L157.637 36.8494H153.67L153.098 34.7745H148.531ZM147.372 18.4096L150.305 17.5664L152.505 21.3644H149.242L147.372 18.4096ZM151.339 28.469C150.965 27.0979 150.803 26.4381 150.825 26.4601H150.737C150.737 26.4601 150.598 27.0979 150.224 28.447L149.454 31.3505H152.167L151.339 28.469Z" fill="#005BA5"/>
<path d="M162.264 29.3706H162.205V30.4997V36.8492H158.539V22.4785H162.337L167.059 29.9718H167.117V22.4785H170.783V36.8492H167.007L162.264 29.3706Z" fill="#005BA5"/>
<path d="M181.664 36.8488V35.9836H181.605C181.176 36.3723 180.673 36.6707 180.127 36.8609C179.58 37.0511 179.001 37.1292 178.423 37.0907C177.583 37.116 176.747 36.9646 175.969 36.6464C175.191 36.3281 174.488 35.85 173.907 35.2431C172.667 33.6527 171.99 31.6968 171.979 29.6808C171.969 27.6647 172.626 25.7018 173.848 24.0985C174.44 23.4624 175.163 22.962 175.966 22.6316C176.77 22.3013 177.636 22.1489 178.504 22.1848C179.929 22.14 181.331 22.551 182.507 23.358C183.524 24.1088 184.262 25.1767 184.604 26.3934L180.938 27.3832C180.773 26.8923 180.454 26.4675 180.029 26.1717C179.604 25.8759 179.095 25.7249 178.577 25.7408C178.185 25.7316 177.796 25.8159 177.443 25.9868C177.09 26.1576 176.782 26.4101 176.546 26.7233C175.987 27.5522 175.715 28.5407 175.769 29.5388C175.697 30.6023 175.987 31.6589 176.59 32.5376C176.868 32.8768 177.222 33.1454 177.623 33.3213C178.025 33.4972 178.462 33.5754 178.9 33.5494C180.175 33.5494 181.055 33.1828 181.532 32.4203V31.6871H178.658V28.5197H185V36.8488H181.664Z" fill="#005BA5"/>
</svg>
