<svg width="24" height="30" viewBox="0 0 24 30" fill="none" xmlns="http://www.w3.org/2000/svg">
<path d="M14 14V12C14 10.8954 13.1046 10 12 10H5C3.89543 10 3 10.8954 3 12V24C3 25.1046 3.89543 26 5 26H12C13.1046 26 14 25.1046 14 24V22" stroke="white" stroke-width="1.75" stroke-linecap="round" stroke-linejoin="round"/>
<path d="M14 14V12C14 10.8954 13.1046 10 12 10H5C3.89543 10 3 10.8954 3 12V24C3 25.1046 3.89543 26 5 26H12C13.1046 26 14 25.1046 14 24V22" stroke="white" stroke-opacity="0.2" stroke-width="1.75" stroke-linecap="round" stroke-linejoin="round"/>
<path d="M7 17.125C6.51675 17.125 6.125 17.5168 6.125 18C6.125 18.4832 6.51675 18.875 7 18.875V17.125ZM21 18V18.875C21.3539 18.875 21.673 18.6618 21.8084 18.3348C21.9438 18.0079 21.869 17.6315 21.6187 17.3813L21 18ZM18.6187 14.3813C18.277 14.0396 17.723 14.0396 17.3813 14.3813C17.0396 14.723 17.0396 15.277 17.3813 15.6187L18.6187 14.3813ZM17.3813 20.3813C17.0396 20.723 17.0396 21.277 17.3813 21.6187C17.723 21.9604 18.277 21.9604 18.6187 21.6187L17.3813 20.3813ZM21.6187 18.6187C21.9604 18.277 21.9604 17.723 21.6187 17.3813C21.277 17.0396 20.723 17.0396 20.3813 17.3813L21.6187 18.6187ZM7 18.875H21V17.125H7V18.875ZM21.6187 17.3813L18.6187 14.3813L17.3813 15.6187L20.3813 18.6187L21.6187 17.3813ZM18.6187 21.6187L21.6187 18.6187L20.3813 17.3813L17.3813 20.3813L18.6187 21.6187Z" fill="white"/>
<path d="M7 17.125C6.51675 17.125 6.125 17.5168 6.125 18C6.125 18.4832 6.51675 18.875 7 18.875V17.125ZM21 18V18.875C21.3539 18.875 21.673 18.6618 21.8084 18.3348C21.9438 18.0079 21.869 17.6315 21.6187 17.3813L21 18ZM18.6187 14.3813C18.277 14.0396 17.723 14.0396 17.3813 14.3813C17.0396 14.723 17.0396 15.277 17.3813 15.6187L18.6187 14.3813ZM17.3813 20.3813C17.0396 20.723 17.0396 21.277 17.3813 21.6187C17.723 21.9604 18.277 21.9604 18.6187 21.6187L17.3813 20.3813ZM21.6187 18.6187C21.9604 18.277 21.9604 17.723 21.6187 17.3813C21.277 17.0396 20.723 17.0396 20.3813 17.3813L21.6187 18.6187ZM7 18.875H21V17.125H7V18.875ZM21.6187 17.3813L18.6187 14.3813L17.3813 15.6187L20.3813 18.6187L21.6187 17.3813ZM18.6187 21.6187L21.6187 18.6187L20.3813 17.3813L17.3813 20.3813L18.6187 21.6187Z" fill="white" fill-opacity="0.2"/>
</svg>
