<svg width="18" height="18" viewBox="0 0 18 18" fill="none" xmlns="http://www.w3.org/2000/svg">
<path d="M2.6 15.4C2.16 15.4 1.7832 15.2435 1.4696 14.9304C1.15653 14.6168 1 14.24 1 13.8V2.6C1 2.16 1.15653 1.7832 1.4696 1.4696C1.7832 1.15653 2.16 1 2.6 1H11.54C11.7533 1 11.9568 1.04 12.1504 1.12C12.3435 1.2 12.5133 1.31333 12.66 1.46L14.94 3.74C15.0867 3.88667 15.2 4.05653 15.28 4.2496C15.36 4.4432 15.4 4.64667 15.4 4.86V8.52L13.8 10.12V4.86L11.54 2.6H2.6V13.8H10.12L8.52 15.4H2.6ZM8.2 13C8.86667 13 9.43333 12.7667 9.9 12.3C10.3667 11.8333 10.6 11.2667 10.6 10.6C10.6 9.93333 10.3667 9.36667 9.9 8.9C9.43333 8.43333 8.86667 8.2 8.2 8.2C7.53333 8.2 6.96667 8.43333 6.5 8.9C6.03333 9.36667 5.8 9.93333 5.8 10.6C5.8 11.2667 6.03333 11.8333 6.5 12.3C6.96667 12.7667 7.53333 13 8.2 13ZM4.2 6.6H9.8C10.0267 6.6 10.2168 6.5232 10.3704 6.3696C10.5235 6.21653 10.6 6.02667 10.6 5.8V4.2C10.6 3.97333 10.5235 3.7832 10.3704 3.6296C10.2168 3.47653 10.0267 3.4 9.8 3.4H4.2C3.97333 3.4 3.7832 3.47653 3.6296 3.6296C3.47653 3.7832 3.4 3.97333 3.4 4.2V5.8C3.4 6.02667 3.47653 6.21653 3.6296 6.3696C3.7832 6.5232 3.97333 6.6 4.2 6.6ZM11 17C10.8933 17 10.8 16.96 10.72 16.88C10.64 16.8 10.6 16.7067 10.6 16.6V15.74C10.6 15.7133 10.64 15.62 10.72 15.46L14.6 11.6L16 13.02L12.14 16.88C12.1133 16.9067 12.02 16.9467 11.86 17H11ZM16.52 12.48L15.1 11.08L15.78 10.4C15.86 10.32 15.9565 10.28 16.0696 10.28C16.1832 10.28 16.28 10.32 16.36 10.4L17.2 11.24C17.28 11.32 17.32 11.4133 17.32 11.52C17.32 11.6267 17.28 11.72 17.2 11.8L16.52 12.48ZM2.6 13.8V2.6V10.12V13.8Z" fill="white"/>
</svg>
